<?xml version="1.0" encoding="UTF-8"?>
<svg width="100px" height="60px" viewBox="0 0 100 60" version="1.1" xmlns="http://www.w3.org/2000/svg" xmlns:xlink="http://www.w3.org/1999/xlink">
    <!-- Generator: Sketch 43.2 (39069) - http://www.bohemiancoding.com/sketch -->
    <title>taco</title>
    <desc>Created with Sketch.</desc>
    <defs>
        <path d="M13.1711685,0.0802802639 C13.9404705,8.17436004 11.7765844,10.9618127 9.83974756,11.5125963 C4.04051253,13.1618985 0.870537388,9.06354018 0.101747944,0.969460402 C6.89272136,2.35505711 8.34470836,2.40942412 13.1711685,0.0802802639 Z" id="path-1"></path>
    </defs>
    <g id="Page-1" stroke="none" stroke-width="1" fill="none" fill-rule="evenodd">
        <g id="Artboard-3" transform="translate(-204.000000, -156.000000)">
            <g id="taco" transform="translate(204.000000, 156.000000)">
                <path d="M8.31670043,58.590622 C8.14531077,58.2265211 8.40857598,58.050656 8.63175004,57.8570707 C9.30026994,57.4047029 9.94841017,56.9322744 10.2599518,56.1388755 C11.318024,54.1672474 11.871616,52.0169123 12.4786628,49.8856349 C12.6806219,48.6682874 13.0085341,47.4786906 13.2577674,46.2720421 C13.4465299,45.365802 13.7462112,44.4908231 14.0138197,43.6068169 C14.4175709,41.5698245 15.1253467,39.6179227 15.6777694,37.622389 C15.9762814,37.1399302 16.0399261,36.5825784 16.2026293,36.0541473 C16.8654696,33.9018061 17.5406714,31.7506352 18.4726235,29.6942508 C18.6348256,29.3365024 18.7689639,28.9765808 18.8386223,28.5915834 C19.2574078,27.7913305 19.5203389,26.9071571 20.1003241,26.1911588 C20.5583655,25.1789316 21.0920789,24.2113393 21.7829831,23.3365276 C22.0873417,22.5952863 22.7598707,22.1292104 23.1748141,21.4705523 C23.9719597,20.477717 24.6600241,19.3887577 25.691703,18.6025472 C26.7427592,17.3591209 27.9361391,16.2686571 29.2576436,15.3207911 C29.4601039,15.1756857 29.654713,15.0307475 29.8169151,14.8423445 C30.1590262,14.5838964 30.4790872,14.291178 30.881168,14.1208296 C31.9180253,13.3834333 32.9229768,12.5978915 34.0704189,12.0300078 C34.8371621,11.2682044 35.8745205,10.9393768 36.7488417,10.3499279 C37.2780448,9.91126823 37.9300271,9.6859202 38.508676,9.33268549 C40.8997789,8.04830202 43.3949518,7.00999593 45.9699728,6.15641504 C47.099708,6.04440972 48.0891241,5.41266624 49.2227013,5.29614727 C49.8486244,5.23161882 50.4575087,5.02098194 51.0962943,5.01111879 C51.5215946,5.16976514 51.9417164,5.08985686 52.3620053,4.98186366 C54.6943078,4.64701789 57.0366332,4.62010318 59.3826335,4.75718432 C59.6358759,4.77206264 59.8745853,4.79128744 60.1099538,4.69115133 C60.6560286,4.5401949 61.2069478,4.83642391 61.7535238,4.67593867 C62.7943902,4.64233707 63.8532977,4.89008617 64.872281,4.47917707 C65.8276197,5.00459907 66.8975522,4.91181854 67.9243868,5.02315518 C68.7713123,5.11493268 69.6200753,5.20069198 70.4688383,5.2809346 C71.3922711,5.43640468 72.337754,5.41450513 73.2528345,5.63099304 C75.3833449,5.95614283 77.4989882,6.34648975 79.544305,7.05362786 C80.1458392,7.26158999 80.7316711,7.5098406 81.3350429,7.71027998 C82.6162892,8.34703862 83.9364573,8.90790111 85.1567316,9.66753127 C86.2824577,10.3683168 87.3622459,11.1292844 88.3573416,12.0081082 C88.8138796,12.8366133 89.7767353,13.1116115 90.3445262,13.8316218 C90.6204869,14.1818474 90.9066375,14.4996417 90.9762959,14.9548514 C92.3819918,16.7815412 93.7761615,18.6115745 94.9329581,20.6176401 C98.2974407,26.4517802 100.028543,32.72458 99.999644,39.4582733 C99.9911247,41.5111471 99.8715194,43.5740511 99.2963785,45.5715909 C97.9239248,50.3410117 94.5930186,52.9562525 89.9118759,54.037689 C87.1190263,54.6826391 84.2613626,54.9066498 81.4183991,55.214748 C76.0747502,55.7938322 70.7103875,55.9073421 65.3413475,55.9108527 C64.6656446,56.4427945 63.8578079,56.3202573 63.1256434,56.2239661 C62.0014207,56.076186 60.8994153,55.9905938 59.7875541,56.2450298 C56.6930186,56.4147095 53.5958104,56.521031 50.5002726,56.6549359 C49.8738484,56.6014408 49.246589,56.5471099 48.621,56.6624586 C48.175153,56.8207706 39.2094359,57.2791566 36.5281733,57.5437901 C33.405741,57.8518883 30.2747894,58.0844248 27.1881051,58.6875818 C26.8914306,58.7454234 26.580223,58.7292077 26.2758644,58.7474294 C25.8771245,58.9278082 25.4232593,58.6920954 25.0298649,58.9127627 C24.6047317,59.1252384 24.1136151,58.83252 23.6918228,59.0827767 C20.1638018,59.3612855 16.6301012,59.6247488 13.0865448,59.2482771 C11.4748806,59.1874265 9.88142454,58.9931725 8.31670043,58.590622 Z" id="Fill-1" fill="#F1D910"></path>
                <path d="M0.688468158,45.4866616 C1.06859192,42.0719394 1.45253351,38.650204 2.43305361,35.3481927 C4.12817318,29.638677 6.51000541,24.2834909 10.7049782,19.9211624 C10.779177,19.8441851 10.8190153,19.7341458 10.8749549,19.6394687 C11.6021698,19.8752432 11.949925,20.4102441 12.0481928,21.1432823 C11.0782962,22.5115089 10.1225091,23.8899212 9.34300636,25.3823802 C9.25669005,25.5164644 9.18116328,25.6582297 9.06330831,25.7692708 C8.57811104,26.110576 7.96526523,26.1122458 7.44985725,26.3884292 C6.54569389,26.8728355 6.49241016,27.2864427 7.29465388,27.8775486 C7.49650126,28.026327 7.69386683,28.1752723 7.80325615,28.4120487 C7.84624832,29.3304336 7.43076807,30.1558112 7.27423676,31.0347891 C6.91170825,31.6305705 6.23063935,31.8152493 5.72502495,32.232697 C4.90286208,32.911467 4.25565574,33.7196457 3.69127985,34.6094773 C3.39166265,35.0820281 3.37373542,35.5749503 3.75784301,35.9878896 C4.12418935,36.3819602 4.59793311,36.3296958 5.05740148,36.1256473 C5.34672712,35.9972404 5.62011743,35.7227268 5.95426116,36.0363135 C6.2739635,37.0836063 5.90446329,38.0939967 5.57363942,39.0128826 C4.9493401,40.7464594 4.67246393,42.5947509 3.83785159,44.2533541 C3.56910907,44.7875202 3.4514201,45.4146936 2.90895528,45.7817136 C2.14439195,45.874554 1.39559794,45.8384865 0.688468158,45.4866616" id="Fill-3" fill="#E3CB20"></path>
                <path d="M45.9228933,6.29346251 C44.953854,6.98418653 43.7649277,7.14853294 42.7119073,7.64391759 C41.3565212,8.28119971 39.9772598,8.86705028 38.608183,9.47518227 C38.0420197,9.24399159 37.4534836,9.18954452 36.8439105,9.14782968 C35.003337,9.02201504 33.5986976,8.0384495 32.4037607,6.70575254 C32.1069047,6.37488183 32.1347872,6.00062099 32.3586813,5.63272626 C32.8453714,4.38580439 33.8925482,4.62252354 34.8709373,4.67730568 C36.4089782,4.61531977 37.6583442,5.23400612 38.6869884,6.33836041 C38.989521,6.66320005 39.2160865,6.71094595 39.582565,6.40235666 C40.0889565,5.97632921 40.5905061,5.54209282 41.1155971,5.13583384 C41.9091608,4.52167079 42.7332782,3.99328283 43.7318695,3.79291758 C44.9141174,3.15060958 46.0791684,2.45117403 47.4156879,2.18748264 C48.1579946,2.04089435 48.9742649,1.85878981 49.4337405,2.77986686 C49.9162566,3.1370397 49.7486281,3.52788596 49.4948481,3.92409316 C48.4618629,4.95155142 47.3028225,5.7903715 45.9228933,6.29346251" id="Fill-5" fill="#FAAB19"></path>
                <path d="M10.4991394,56.1988465 C10.1007066,56.9013298 9.72172978,57.6235073 8.85236131,57.8539966 C8.36213593,57.910242 7.89236433,57.9064033 7.41743772,57.6949407 C4.8076694,56.5318126 2.69161856,54.84879 1.50945704,52.1565215 C1.50613122,52.1146295 1.49831555,52.073572 1.48584374,52.033516 C1.31672596,51.8223871 1.31273498,51.5027731 1.04434158,51.3569022 C1.03818882,51.216706 1.03220235,51.0766766 1.02621588,50.9364804 C0.906985355,50.3491583 0.857264396,49.7556608 0.860756504,49.1573233 C0.879048495,48.7364008 0.80006035,48.2871052 1.19782802,47.9751686 C1.47520113,47.8247914 1.75606634,47.8917184 1.95395243,48.0824854 C2.67399174,48.7764568 3.4999583,49.3639459 4.09112221,50.1891009 C4.5246424,51.1886667 5.33231698,51.4620494 6.22646278,50.9062714 C6.69556922,50.7088284 7.08169653,50.4344443 7.26029288,49.9192231 C7.33113278,49.7151041 7.46416544,49.5283426 7.69580857,49.4542389 C7.77812253,49.4537382 7.85378486,49.4756022 7.92429217,49.5179948 C8.33170471,50.2909101 8.60774749,51.1259122 9.11776147,51.8554334 C9.38000212,52.2306252 9.1698105,52.6396978 8.87880155,52.9846807 C7.7659833,54.3038606 8.18154409,55.4694922 9.89234417,55.8401778 C10.1404501,55.8939197 10.382237,55.9331412 10.4991394,56.1988465" id="Fill-9" fill="#755848"></path>
                <path d="M29.9483649,14.9777982 C28.4654474,16.0689682 27.1348572,17.3332239 25.8330455,18.6305352 C25.1574133,18.8439853 24.4978243,18.8433208 23.850309,18.5127639 C22.7239797,17.9380268 22.5630519,16.7292515 23.5112525,15.8920621 C23.8853724,15.5618374 24.340039,15.3640016 24.783128,15.1545381 C25.1397162,14.9861036 25.3085829,14.7783012 25.0780245,14.3955861 C24.6708258,13.6466006 24.3137414,12.8780142 24.1189079,12.0423198 C24.0917834,11.4629316 23.4713927,10.9338744 23.9698885,10.309969 C23.9682345,10.255153 23.9627765,10.2000048 23.9657536,10.145355 C24.0001555,9.52576837 23.8764412,8.76748076 24.5917678,8.50303522 C25.2961784,8.24274241 25.7217357,8.86465452 26.152751,9.31962709 C26.8874286,9.45882644 27.0629111,10.1405378 27.4276036,10.6398615 C27.6138366,10.9443393 27.7130726,11.2876866 27.8577919,11.6112669 C27.9168373,11.7999668 27.9851448,11.9845139 28.0936429,12.1514534 C28.3318095,12.6722052 28.3519875,13.2286703 28.2778912,13.7755012 C28.2128916,14.2558884 28.3819237,14.4309673 28.8403943,14.4482427 C29.275379,14.4646874 29.7398038,14.4638569 29.9483649,14.9777982" id="Fill-13" fill="#FAAB19"></path>
                <path d="M45.9552496,6.3536053 C47.0599996,5.52079937 48.1649167,4.68799345 49.2696667,3.85518753 C50.6750438,3.3353847 52.0984685,2.87560987 53.5706886,2.5739857 C55.5248479,2.1569231 57.4594555,1.63415185 59.4662537,1.49793449 C60.0765316,1.45637665 60.6869765,1.41795214 61.2974215,1.37820833 C61.6458414,2.52121384 62.1739022,3.63552466 61.8727739,4.88242477 C61.3844847,5.11627008 60.8886757,5.04618245 60.3915299,4.91672648 C57.8588432,4.41869205 55.3238171,4.40945697 52.7846133,4.87269496 C52.4801428,4.92810542 52.1952239,5.02655792 51.9136472,5.14183145 C51.6710066,5.22494713 51.4032998,5.22610151 51.1736936,5.35555749 C49.7267067,5.48303451 48.3253402,5.8301744 46.9348358,6.22447915 C46.6114821,6.31617026 46.2966509,6.41891047 45.9552496,6.3536053" id="Fill-15" fill="#49BB92"></path>
                <path d="M27.7411649,11.6678232 C27.5856393,11.3981298 27.4301137,11.1284365 27.2745881,10.8587432 C27.047333,10.1410648 27.3260389,9.59064981 27.8284804,9.09186753 C28.0414902,8.88032368 28.3387988,8.75851052 28.4827606,8.47628497 C29.7236136,7.42909283 30.9148593,6.31172027 32.4531885,5.68510936 C32.403246,6.17486844 32.6402215,6.53429246 32.99183,6.83339473 C34.4963056,8.11351903 36.0523996,9.21384778 38.2213785,8.75349764 C38.7134293,8.64889539 38.4917048,9.29789719 38.7263339,9.51779584 C38.2488636,10.0035446 37.6071529,10.2157568 37.0284569,10.5330726 C35.8636907,10.6989992 34.6980867,10.5342423 33.5329854,10.5312345 C33.2246156,10.5305662 32.9246255,10.492134 32.6372048,10.6294871 C32.1595669,10.7538067 31.689303,10.9177282 31.1892078,10.9416229 C31.0132359,10.9463016 30.8412863,10.9770473 30.6725209,11.0275104 C29.9029373,10.9773815 29.2186581,11.2818309 28.529016,11.552861 C28.2705888,11.6544555 28.0274124,11.7866286 27.7411649,11.6678232" id="Fill-17" fill="#49BC92"></path>
                <path d="M70.4114845,5.68510936 C68.7019289,5.55605726 66.9936975,5.40402095 65.2821556,5.31174359 C64.7746519,5.28433279 64.8752919,4.88679103 64.7316151,4.62885708 C64.0971528,3.90766355 63.8097991,2.09803983 64.2153386,1.37820833 C67.1681622,1.57348901 70.0504717,2.09514553 72.7665927,3.36319308 C73.1385303,3.53685158 73.4818319,3.77588739 73.83821,3.98478835 C73.7021474,4.23897672 73.4634584,4.30214075 73.2131827,4.31712305 C72.0978665,4.38335163 71.1960792,4.90585941 70.4114845,5.68510936" id="Fill-19" fill="#48BC92"></path>
                <path d="M7.67936095,49.5861416 C7.64969718,50.4609708 7.20038319,51.0121676 6.34968652,51.2543976 C5.29469527,51.5175549 4.48505862,51.1494312 3.85524812,50.3179398 C3.01108753,49.5721351 2.16692694,48.8263305 1.32276635,48.0805258 C0.689101239,48.054655 0.686419768,47.5120269 0.505420476,47.1155607 C-0.210867465,46.4961441 -0.175002791,46.1377426 0.67183927,45.4476344 C1.42801409,45.1630554 2.14480481,45.3632658 2.85707054,45.6196671 C3.08801223,45.5344746 3.31962429,45.4580157 3.56849832,45.5512824 C3.96217178,45.8223493 4.44869117,45.9360491 4.81772862,46.2516072 C5.70127331,46.8006618 6.5414117,47.4024467 7.21094149,48.2026295 C7.54428185,48.6010731 7.89387863,49.0039658 7.67936095,49.5861416" id="Fill-21" fill="#FAAB19"></path>
                <path d="M12.0439296,21.0373183 C11.5824027,20.634149 11.2377646,20.1430818 10.9509012,19.6090608 C10.6054259,19.0745423 10.5545173,18.5272536 10.942863,17.9998664 C11.3335532,17.4691623 11.9126389,17.559382 12.4645956,17.6156035 C12.6544982,17.6348415 12.8393769,17.7044964 13.0264326,17.7512647 C13.63114,17.5167598 14.0837914,17.829046 14.5319213,18.1599069 C15.4799271,18.7085223 16.4929083,19.1786929 17.0535731,20.1991375 C17.5145976,20.604131 17.691773,21.0965249 17.443426,21.6693537 C17.1560602,22.3319046 16.6947008,22.8226401 15.9191815,22.8936218 C15.1086625,22.9679203 14.3281194,22.8209816 13.5730305,22.5290944 C13.1821728,22.3242757 12.7618417,22.1599233 12.4367968,21.8534417 C12.2078755,21.6375114 11.8706058,21.451765 12.0439296,21.0373183" id="Fill-23" fill="#FAAB19"></path>
                <path d="M81.191613,8.09697394 C79.1705113,7.41703214 77.1621439,6.69562228 75.0494221,6.34070945 C74.4363606,6.23779481 73.7963424,6.23813058 73.225618,5.93308015 C73.0036789,5.43596714 73.3054963,5.16583718 73.6552737,4.92072236 C74.3497018,4.43418623 75.1291349,4.42797441 75.9188216,4.53542201 C76.3203628,4.58981735 76.7199194,4.66234448 77.1224529,4.71220687 C78.3976934,4.85558226 79.6686341,5.01054183 80.8472931,5.58807264 C81.3536848,5.83620943 81.7755677,6.15838432 82.0128871,6.69092145 C82.2295341,7.65123431 82.0717622,7.92136428 81.191613,8.09697394" id="Fill-27" fill="#FAAB19"></path>
                <path d="M14.4434349,18.4335364 C13.9893662,18.2060649 13.5351306,17.9787619 13.080895,17.7512905 C16.1662248,14.8423514 19.7149718,12.6267791 23.4521906,10.6932715 C23.6730482,10.5791987 23.8890647,10.4556901 24.1072514,10.3365625 C24.1513228,10.9354022 24.4755144,11.4481398 24.6127367,12.0181665 C23.4997676,12.6449768 22.3106753,13.1115461 21.1628164,13.6645546 C19.0392107,14.6878393 17.1095858,15.9529177 15.543049,17.7438766 C15.2455672,18.0840728 14.9115263,18.3684964 14.4434349,18.4335364" id="Fill-29" fill="#E3CB20"></path>
                <path d="M64.1977424,1.32492705 C64.2930152,2.41375049 64.7048668,3.45015349 64.7160069,4.55318118 C64.6972183,4.95360577 64.6340356,5.27151042 64.0956524,5.13690824 C63.3288138,4.94515085 62.5105976,5.244962 61.7534027,4.90828744 C61.4438074,3.73018014 60.8971106,2.59113453 61.1806015,1.31511935 C61.2299838,1.24731097 61.2780359,1.17865709 61.3287483,1.11203239 C62.5022841,-0.434032641 63.3313078,-0.372480889 64.1977424,1.32492705" id="Fill-31" fill="#FAAB19"></path>
                <path d="M81.2392427,7.95510734 C81.7574612,7.63268104 81.9411315,7.10859113 82.0617013,6.54648957 C84.3980734,7.64024973 86.587708,8.97385335 88.5204691,10.7084295 C89.0747923,11.2057767 89.6349122,11.7465177 89.4722754,12.6315502 C88.8440866,13.0002296 88.5025824,12.3967525 88.0423302,12.1962662 C85.9605129,10.4751456 83.6789603,9.08401988 81.2392427,7.95510734" id="Fill-33" fill="#F4EDD7"></path>
                <path d="M43.7177281,3.82411203 C42.0851406,4.91071278 40.4297313,5.96751884 39.0564527,7.40786977 C38.1806238,5.68339932 36.5357985,5.22446236 34.939759,4.69293171 C37.81349,3.87300165 40.7513867,3.70575633 43.7177281,3.82411203" id="Fill-35" fill="#49BC92"></path>
                <path d="M77.2805508,4.5159435 C76.4027681,4.60833868 75.500425,4.44212344 74.6419879,4.72907692 C74.0977895,4.91098493 73.5058161,5.04389307 73.3169028,5.6800907 C72.3847844,5.71756119 71.4782358,5.53773487 70.5679862,5.38945423 C70.7932356,4.41554181 71.529207,4.02146117 72.477643,3.90136346 C72.9977856,3.83538978 73.5256664,3.82530157 74.0501827,3.79007291 C75.1405981,3.978226 76.2530505,4.0760656 77.2805508,4.5159435" id="Fill-37" fill="#F3EDD7"></path>
                <path d="M1.41176292,52.1996405 C1.83115422,52.7395465 2.23419693,53.2930831 2.67277279,53.8170313 C4.30512914,55.7677077 6.36354967,57.0885492 8.77796902,57.874139 C8.55559487,58.0004717 8.3740922,58.1668651 8.26315536,58.401578 C5.33275459,57.7024263 3.19359206,55.982972 1.77009725,53.3630648 C1.57891888,53.0114942 1.27346723,52.6647443 1.41176292,52.1996405" id="Fill-39" fill="#E1CA21"></path>
                <path d="M13.080895,59.1341135 C15.3042554,59.2454714 17.535008,58.9954276 19.7602165,59.2659309 C19.7778569,59.0392693 19.5219873,59.1839469 19.4783064,59.0664511 C19.5127471,59.0397077 19.5503799,58.9866592 19.5829726,58.9888513 C20.9728669,59.0848646 22.3627612,58.7918559 23.7521515,58.9870976 C22.5949423,59.2656386 21.3967402,59.2673923 20.2151704,59.3422154 C17.8327105,59.4930309 15.4480666,59.4848471 13.080895,59.1341135" id="Fill-59" fill="#E2CD21"></path>
                <path d="M53.5283993,2.58414062 C52.1261908,3.14472379 50.8505439,4.14125816 49.2254733,3.93458114 C49.5362764,3.64916173 49.5319295,3.29664618 49.4247618,2.92240259 C50.7926967,2.80976448 52.1604644,2.69695255 53.5283993,2.58414062" id="Fill-61" fill="#DDCA24"></path>
                <path d="M88.1239243,12.2315989 C88.6300925,12.2510321 89.0573096,12.548377 89.5323215,12.6764985 C89.8265939,12.8672188 90.1317956,13.0419455 90.4131814,13.2517551 C91.00923,13.6957948 91.2501615,14.2552298 90.8596469,14.9880156 C89.9477937,14.0693247 89.0359406,13.1504618 88.1239243,12.2315989" id="Fill-63" fill="#F5AA1D"></path>
                <path d="M28.3993115,8.44152602 C28.3294426,9.02935246 27.8106617,9.36259508 27.5718715,9.85620013 C27.4146235,10.1814923 27.1339462,10.4546836 27.1619281,10.8533906 C26.9178162,10.2897538 26.5574849,9.80037776 26.16179,9.3338381 C26.9078594,9.03645713 27.6535855,8.73907615 28.3993115,8.44152602" id="Fill-65" fill="#DFCA23"></path>
                <path d="M0.516351119,47.0313593 C0.803271671,47.3657974 1.09001576,47.7002354 1.37693632,48.0346735 C1.16712787,48.3531778 1.0429015,48.7006371 0.999845776,49.0760233 C0.931556567,49.1920144 0.880207317,49.3391877 0.691220902,49.2360464 C0.632989793,48.5012078 0.574582227,47.7661979 0.516351119,47.0313593" id="Fill-67" fill="#D5C12F"></path>
                <path d="M1.03270224,51.5105363 C1.48783747,51.5780189 1.52029161,51.8878948 1.54905336,52.1996405 C1.07953725,52.140317 1.22276298,51.7299822 1.03270224,51.5105363" id="Fill-81" fill="#9F983E"></path>
                <path d="M13.4880558,22.2030643 C14.1104844,22.321881 14.7136439,22.5287225 15.3573351,22.5526532 C16.0781031,22.5794288 16.5546837,22.2515951 16.9070112,21.6427851 C17.245219,21.0584078 16.9266127,20.6403738 16.6141525,20.2067766 C16.7658144,19.623236 17.2920631,19.7589548 17.6852546,19.6394687 C18.0681471,19.6423136 18.364162,19.8571877 18.6477183,20.0734006 C19.0882523,20.409267 19.5719758,20.6766882 20.0248022,20.9892933 C20.9904221,21.6556708 21.9892647,21.7475446 23.054719,21.2930289 C23.178806,21.3407229 23.2766471,21.4051517 23.2186733,21.5644665 C22.7766444,22.179301 22.3349476,22.7941355 21.8930848,23.4091374 C21.5326177,23.5575746 21.2008883,23.4533172 20.853212,23.3286433 C20.0422442,23.0377934 19.2041998,22.8928705 18.3375838,22.9281809 C17.9726316,22.9430748 17.6256198,23.0185485 17.2938904,23.1606265 C16.7965455,23.3736598 16.477773,23.7307792 16.4834209,24.3032749 C16.4887365,24.8436398 16.8844197,25.0688895 17.3025283,25.2389145 C18.0249575,25.5326093 18.8046959,25.5742788 19.5615107,25.7163568 C19.8847682,25.7769366 20.2415808,25.781957 20.2503848,26.2498605 C19.8133393,26.9801647 19.5816104,27.8209184 19.0578534,28.5048674 C18.6493795,29.2639554 18.1691443,29.9823781 17.5988754,30.6182984 C16.6885715,31.6335954 16.1802631,32.8055296 16.1455453,34.1545174 C16.1149804,35.3460313 15.9691324,36.5251614 15.8945473,37.7111528 C15.3405576,39.684012 14.7865678,41.6568711 14.2327442,43.6297302 C14.0435406,43.8745596 13.7890541,43.9244291 13.4948665,43.915727 C12.1727663,43.8769024 11.0088065,44.3086588 9.97341883,45.1278246 C9.77192272,45.2873068 9.6146129,45.472393 9.48720357,45.6887733 C9.17673677,46.2160851 8.94916079,46.7736868 9.41959523,47.3066885 C9.89368418,47.8440411 10.4297336,47.565575 10.932228,47.3100354 C11.4503371,47.0466305 11.9269178,46.708254 12.4370534,46.4321307 C12.7837331,46.2443668 13.1546653,45.9426394 13.554003,46.3579958 C13.2697822,47.557877 12.9855614,48.7579256 12.7013406,49.9578068 C12.4917049,50.173183 12.3034979,50.3977633 12.1317362,50.6526335 C11.401998,51.7362082 10.1980048,51.7966206 9.33255157,50.8151278 C8.80995738,50.2222158 8.47141733,49.5319076 8.33653288,48.7460439 C8.22722996,48.3094344 8.03420566,47.8952495 7.98902269,47.4409011 C7.66011726,46.0259784 7.2458293,44.6262843 7.26327125,43.15279 C7.1619418,42.6925845 7.31426821,42.2471056 7.34250756,41.7954348 C7.30064687,41.347613 7.50662805,41.0107426 7.78121426,40.6750436 C9.30314942,38.8148093 10.7750843,36.915081 12.0559883,34.8749482 C12.6787491,33.8830798 12.5048279,32.941081 11.6146237,32.2634912 C10.8295696,31.1812552 10.0828879,30.0807784 9.94634227,28.6906231 C10.1436855,28.2660626 10.5297341,28.22774 10.9206,28.2305849 C11.5533277,28.2347686 12.1775836,28.1795439 12.7935338,28.0324455 C13.1820741,27.9399024 13.5468601,27.8003346 13.6345682,27.3525128 C13.7310804,26.8588378 13.3980221,26.5942615 13.0440335,26.3598077 C12.6436991,26.094562 12.1745936,26.035321 11.7212688,25.9406024 C11.4186094,25.8775124 11.1274118,25.8212836 10.9667797,25.5133643 C10.8704337,25.2636819 10.9141216,25.0190199 11.0327269,24.7971172 C11.4882111,23.9456534 12.0875499,23.1997858 12.7410418,22.4967591 C12.9400462,22.2830564 13.216958,22.2443992 13.4880558,22.2030643" id="Fill-83" fill="#EE3B35"></path>
                <path d="M8.58254476,48.5901975 C8.89759004,49.2662319 9.12986069,49.9879625 9.64607342,50.5537886 C10.3467314,51.3215513 11.0967198,51.3269273 11.7371781,50.5223724 C12.0097491,50.1798192 12.2734574,49.8940502 12.7366609,49.8868262 C12.1935255,52.1136742 11.6385174,54.3363222 10.4358605,56.3256174 C9.42600994,56.3703055 8.48438575,56.2768972 7.98857404,55.1914453 C7.60864683,54.3593383 7.71884579,53.4781751 8.44207872,52.9294851 C9.02066506,52.4908355 8.91631885,52.2079225 8.50779676,51.7390328 C7.9882396,51.1427987 7.67704041,50.4281241 7.76734002,49.5968571 C7.75998227,49.557881 7.75279175,49.5187368 7.74526678,49.4797607 C7.82653642,48.9952469 7.90931106,48.5120772 8.58254476,48.5901975" id="Fill-87" fill="#6A4D3D"></path>
                <path d="M13.6010062,46.220411 C12.8738915,46.2969967 12.3856284,46.8440852 11.7701454,47.1414376 C11.3958606,47.3222465 11.0535904,47.5693188 10.6764562,47.7429686 C9.73898435,48.175012 8.8452601,47.6345831 8.78206917,46.606503 C8.73346076,45.8181695 9.12165757,45.2219662 9.70160616,44.7468017 C11.0378345,43.6522918 12.5609539,43.2026004 14.2857143,43.5062794 C14.05759,44.41099 13.8292981,45.3157005 13.6010062,46.220411" id="Fill-91" fill="#FAAA19"></path>
                <path d="M20.385437,26.3582343 C19.8126252,26.0209386 19.1551065,26.1681749 18.5458491,26.0248626 C18.0625704,25.9112364 17.5658118,25.8501581 17.1121555,25.6363839 C16.6260477,25.4074254 16.1827093,25.1390561 16.1790481,24.4767485 C16.1748877,23.7499505 16.4503099,23.1906913 17.1053323,22.9175448 C18.5473469,22.3156332 19.9702233,22.5631881 21.368137,23.1174996 C21.5981271,23.2086053 21.8104768,23.3461169 22.0309811,23.4621316 C21.4824664,24.4274423 20.9339517,25.392753 20.385437,26.3582343" id="Fill-93" fill="#FAAA19"></path>
                <path d="M63.9746486,24.1194611 C64.2168535,24.1134224 64.4150668,24.1908666 64.6038175,24.3318764 C64.7584923,24.44746 64.8901145,24.6592396 64.8881011,25.0512278 C64.8859871,25.4657819 64.7828034,25.7529927 64.5893718,25.859783 C64.2869177,26.0267489 63.9817457,26.0881957 63.675869,25.8884935 C63.4867156,25.7648583 63.3274101,25.267457 63.3397418,24.8131744 C63.3522245,24.3523234 63.5276368,24.2913003 63.6914723,24.1977528 C63.7980284,24.1369417 63.9047354,24.1138462 63.9746486,24.1194611" id="Fill-97" fill="#E2CA20"></path>
                <path d="M23.2989998,21.5345052 C23.2509435,21.4760942 23.2030529,21.4176832 23.1549966,21.359439 C22.9153778,20.7861768 23.0928548,20.0435226 22.4477401,19.6328098 C22.1033917,19.4136851 21.8162138,19.1181255 21.502522,18.8577793 C21.2229668,18.6258041 20.9861651,18.3706315 20.9987592,17.9695983 C21.7297124,16.4412327 22.9292976,15.3307561 24.2410694,14.330426 C24.5605611,14.0866017 24.949983,14.0387047 25.3112339,14.3129027 C26.0241246,15.0779199 26.0194846,15.0669052 25.0712837,15.480622 C24.645571,15.6662021 24.2317895,15.8866619 23.8335849,16.1266477 C23.3843412,16.3975079 23.0734665,16.7801834 23.1843275,17.3527781 C23.2893885,17.8958335 23.6779819,18.1560128 24.1625222,18.3692964 C24.6962787,18.6041086 25.3213423,18.2868534 25.8053855,18.6995689 C24.9698683,19.644492 24.1345169,20.589582 23.2989998,21.5345052" id="Fill-99" fill="#EE3C35"></path>
                <path d="M30.6312773,10.6170393 C30.8300236,10.5809724 31.0287698,10.5449054 31.2275161,10.5088385 C31.0500398,11.5542762 31.0306416,12.5899842 31.3132764,13.629215 C31.3709605,13.841255 31.2127122,14.1074793 31.0178796,14.2863041 C30.6898122,14.520152 30.3619149,14.7539999 30.0338475,14.9880156 C29.4028962,14.8685753 28.7772199,14.717933 28.1244882,14.7608778 C27.8391308,14.7794984 27.5878052,14.7157522 27.7760016,14.3401529 C28.1394622,13.6147882 27.9288048,12.8796939 27.8270494,12.1456061 C27.8231358,11.782085 28.0712283,11.6302684 28.356926,11.4717416 C29.0738078,11.0738312 29.8407165,10.8181753 30.6312773,10.6170393" id="Fill-101" fill="#EE3C35"></path>
                <path d="M46.3589844,43.9029709 C46.0204964,43.9029709 45.6772361,43.9391017 45.3447134,43.8955073 C44.6336499,43.8023814 44.1102377,43.462616 44.0652423,42.678255 C44.0207582,41.9016969 44.4313411,41.349557 45.1378028,41.1429498 C45.8403444,40.9373604 46.5875405,40.9305752 47.2801967,41.2949367 C48.0204049,41.6845728 48.36554,42.4741922 48.10818,43.3001122 C47.8845666,44.0176396 47.2505407,43.9014443 46.6978133,43.9277366 C46.5851544,43.9331648 46.4719842,43.9285848 46.3589844,43.9285848 L46.3589844,43.9029709 Z" id="Fill-103" fill="#E2CA20"></path>
                <path d="M16.0550136,37.556177 C15.3871422,33.9212192 16.1761679,30.7808587 19.2771084,28.4255468 C18.4621936,30.7116483 17.6447406,32.9970859 16.8333792,35.2843491 C16.5658583,36.0388589 16.314074,36.7988457 16.0550136,37.556177" id="Fill-105" fill="#F5EDD6"></path>
                <path d="M31.0446163,14.2989114 C31.1544545,13.7854165 30.9686643,13.3034142 30.8045747,12.8484292 C30.4909182,11.9782394 30.6050965,11.2333569 31.2491023,10.5672058 C31.6245219,10.4909606 31.9727324,10.2824466 32.3748604,10.3497412 C33.504124,10.3933336 34.0952138,10.9673274 34.2512909,12.1723332 C33.182455,12.8812478 32.1134522,13.5899968 31.0446163,14.2989114" id="Fill-107" fill="#FAAA19"></path>
                <path d="M51.6351119,5.09552189 C52.6828663,4.44478138 53.8052339,4.1159769 55.0305908,4.15384137 C55.9987246,4.18378072 56.9716991,4.21301561 57.9361606,4.14433122 C58.8750835,4.07758409 59.6749623,4.35690059 60.4130809,4.92627652 C59.9076483,5.14483375 59.3775116,5.03352983 58.8623976,5.02472414 C56.6817597,4.98738801 54.5096347,5.16667186 52.3341712,5.26318223 C52.083458,5.29047987 51.7936855,5.49723748 51.6351119,5.09552189" id="Fill-109" fill="#ED3D34"></path>
                <path d="M34.2696989,12.2315989 C33.8965109,12.1892263 33.919984,11.8351721 33.7876502,11.6140975 C33.4467803,11.0449981 32.9924571,10.6195971 32.3580034,10.389981 C33.9187933,10.1143078 35.4738,10.0103022 37.0051635,10.5537771 C36.0932853,11.1129952 35.1814071,11.6723808 34.2696989,12.2315989" id="Fill-111" fill="#ED3D35"></path>
                <path d="M29.188047,22.5681614 C28.5184735,22.5589842 28.019965,22.0987384 28.0570152,21.4665497 C28.0954005,20.8113314 28.4916038,20.5129854 29.1035993,20.5010377 C29.7064157,20.4894364 30.3215822,21.014269 30.2915415,21.5609191 C30.2533231,22.2573483 29.8344224,22.5608889 29.188047,22.5681614" id="Fill-117" fill="#E2CA20"></path>
                <path d="M64.666196,49.1001535 C65.4419427,49.1072003 65.9006744,49.3481028 65.920277,50.0227936 C65.9385941,50.6550397 65.496412,50.9467447 64.9406316,50.9888617 C64.2389568,51.0422863 63.8552611,50.650451 63.8554217,49.9903455 C63.8557431,49.3146714 64.2238532,49.0773743 64.666196,49.1001535" id="Fill-119" fill="#E2CA20"></path>
                <path d="M38.8699408,24.4631979 C38.3059577,24.447321 37.925069,24.2514527 37.868883,23.6938194 C37.8171069,23.1809004 38.417023,22.5244418 38.9125703,22.5704522 C39.4396406,22.6195408 39.7649967,22.9634849 39.7589534,23.4730017 C39.7524201,24.0350093 39.4528704,24.427394 38.8699408,24.4631979" id="Fill-123" fill="#E3CA20"></path>
                <path d="M90.1893287,33.4313286 C90.2482644,32.8990743 90.5687778,32.4528574 91.1518376,32.3931547 C91.6982442,32.3373776 92.088996,32.7314158 92.0825373,33.2837892 C92.0755942,33.8572629 91.666758,34.2300372 91.1108248,34.2777994 C90.6186713,34.3201638 90.220492,34.1057246 90.1893287,33.4313286" id="Fill-125" fill="#E2CA20"></path>
                <path d="M25.499738,31.8710676 C25.0009795,31.8121927 24.6659319,31.5445792 24.6149852,31.0130825 C24.5706908,30.5521386 25.1900015,29.9322484 25.6621509,29.9784725 C26.1914126,30.030049 26.5078013,30.375838 26.5060166,30.8938729 C26.5037451,31.5024098 26.1033105,31.7958115 25.499738,31.8710676" id="Fill-127" fill="#E3CA20"></path>
                <path d="M89.6730041,44.7092347 C89.6705694,44.3484814 90.2079688,43.7263198 90.6663246,43.7593807 C91.1870063,43.7969795 91.5291501,44.094528 91.56502,44.6280409 C91.5976437,45.1096935 90.9824992,45.6916633 90.5036927,45.6511475 C90.0281324,45.6111178 89.6694333,45.4137245 89.6730041,44.7092347" id="Fill-129" fill="#E2CA20"></path>
                <path d="M16.0017509,57.5401978 C15.5194156,57.4625064 15.1593808,57.215808 15.1464641,56.6703466 C15.1346918,56.178734 15.7569862,55.5876958 16.2179026,55.6496543 C16.7452014,55.7203712 17.0547135,56.0695768 17.0390172,56.5855187 C17.0207048,57.1890459 16.6143986,57.475482 16.0017509,57.5401978" id="Fill-131" fill="#E2CA20"></path>
                <path d="M39.7848578,50.132328 C39.1411577,50.1114973 38.86969,49.7362168 38.9008475,49.227259 C38.9359825,48.6525288 39.3362234,48.2449361 39.915454,48.2373911 C40.488884,48.2298461 40.8234953,48.6520367 40.7893547,49.2106929 C40.7523966,49.8162592 40.3253073,50.0949312 39.7848578,50.132328" id="Fill-133" fill="#E3CA20"></path>
                <path d="M93.6316695,30.960626 C93.4477854,31.4458047 93.1610807,31.8837449 92.5734894,31.8707871 C92.0545525,31.8593056 91.7059622,31.5055089 91.7407729,30.9721076 C91.7778398,30.4029493 92.1533439,29.9892844 92.7180504,29.9763267 C93.2700253,29.9635329 93.5636598,30.3673564 93.6316695,30.960626" id="Fill-135" fill="#E3CA20"></path>
                <path d="M53.4367295,50.6483102 C52.6680336,50.6677174 52.3771846,50.35206 52.3255877,49.8177811 C52.2830284,49.3758939 52.9261827,48.7291528 53.3931843,48.7548632 C53.9556567,48.7858815 54.2069043,49.1891202 54.2165993,49.6965275 C54.228759,50.3275107 53.8253498,50.6099934 53.4367295,50.6483102" id="Fill-137" fill="#E2CA20"></path>
                <path d="M62.9736954,11.3686275 C62.3640308,11.358756 61.941076,11.241164 61.9629444,10.5655729 C61.9851442,9.88807677 62.3067091,9.49148523 62.9650805,9.47555229 C63.5237188,9.46204393 63.8648327,9.81949587 63.8552239,10.3674503 C63.8447867,10.9647622 63.5452559,11.3999738 62.9736954,11.3686275" id="Fill-139" fill="#E2CA20"></path>
                <path d="M52.267754,15.5048437 C51.6035874,15.462711 51.2814616,15.081734 51.2910872,14.5599365 C51.3015426,13.9913069 51.7282224,13.6245902 52.3042649,13.6101678 C52.8363284,13.5968798 53.1926417,13.952091 53.1840119,14.4735644 C53.1745522,15.0530513 52.741898,15.3470081 52.267754,15.5048437" id="Fill-141" fill="#E2CA20"></path>
                <path d="M55.9380379,27.4270439 C55.8481659,28.0321922 55.5447858,28.4291458 54.9302467,28.4255222 C54.3393755,28.4220633 54.0105069,28.0204978 54.0475811,27.4703629 C54.0871381,26.8846505 54.5297121,26.5329924 55.098405,26.5305217 C55.6364784,26.5280511 55.8908675,26.9279695 55.9380379,27.4270439" id="Fill-143" fill="#E2CA20"></path>
                <path d="M81.319705,41.0009181 C80.7252869,40.9986651 80.3364152,40.7825522 80.3823282,40.1576098 C80.4251368,39.5704481 80.6862363,39.1032144 81.3288549,39.1066805 C81.887817,39.1098 82.2997269,39.4201916 82.2704798,40.0278034 C82.2417229,40.6246702 81.8912483,41.0217149 81.319705,41.0009181" id="Fill-145" fill="#E2CA20"></path>
                <path d="M46.4715765,11.3470024 C46.4067216,11.8572772 46.0984525,12.2142881 45.4735783,12.2311158 C44.8348661,12.2482734 44.5257634,11.8059693 44.5856166,11.2965194 C44.64597,10.7849247 45.0657761,10.3281026 45.6339649,10.3366814 C46.1332974,10.3444353 46.4749109,10.7022711 46.4715765,11.3470024" id="Fill-147" fill="#E2CA20"></path>
                <path d="M70.4525849,19.8098731 C69.8954581,19.8044919 69.5532857,19.5993121 69.5357384,19.0125881 C69.5181911,18.4236076 70.0114652,17.8835785 70.5637178,17.9182959 C71.0896494,17.951451 71.4667539,18.2725869 71.4254852,18.843688 C71.3819419,19.4498537 71.030021,19.8423338 70.4525849,19.8098731" id="Fill-149" fill="#E2CA20"></path>
                <path d="M29.8717662,55.8143182 C29.2438738,55.8143182 28.8958953,55.5580791 28.916531,54.9415472 C28.9383317,54.2936779 29.2913027,53.9349432 29.9127048,53.9226506 C30.4795221,53.91157 30.8226745,54.2701316 30.808529,54.8238157 C30.7928858,55.4292671 30.480687,55.8584675 29.8717662,55.8143182" id="Fill-151" fill="#E2CA20"></path>
                <path d="M86.1444264,19.8069154 C85.4967691,19.7994798 85.1682859,19.5191758 85.200037,18.9115336 C85.233783,18.2653301 85.5961785,17.9141287 86.2165731,17.9167226 C86.7821095,17.9191434 87.1157461,18.2855618 87.0898132,18.8392529 C87.0613868,19.447068 86.736062,19.8615582 86.1444264,19.8069154" id="Fill-153" fill="#E2CA20"></path>
                <path d="M59.5733704,44.4469426 C59.0979196,44.4511185 58.7308364,44.2797314 58.6935749,43.6902292 C58.6585913,43.1386584 59.1810666,42.5373245 59.6983349,42.5524622 C60.2281323,42.567948 60.6059546,42.8851447 60.5843136,43.4501132 C60.5612082,44.0559711 60.2204847,44.4592964 59.5733704,44.4469426" id="Fill-155" fill="#E2CA20"></path>
                <path d="M56.9805134,21.3621863 C56.4853444,21.3621863 56.1381232,21.1645909 56.1112384,20.5811892 C56.0841907,19.9972661 56.5674652,19.463046 57.1199884,19.4672169 C57.6875019,19.4715616 57.9439666,19.8705757 57.9992026,20.3962802 C58.0549274,20.926677 57.553078,21.3672261 56.9805134,21.3621863" id="Fill-157" fill="#E2CA20"></path>
                <path d="M72.4297939,9.47521466 C72.897678,9.48992428 73.1452093,9.82789934 73.1496817,10.4090157 C73.1550142,11.1012329 72.8054773,11.3935216 72.1408067,11.3687749 C71.6283704,11.3495658 71.2535471,11.2007391 71.2564714,10.5824161 C71.2592236,9.93536606 71.6791152,9.47071525 72.4297939,9.47521466" id="Fill-159" fill="#E2CA20"></path>
                <path d="M97.1320291,41.001671 C96.574053,40.9542802 96.1573367,40.7007224 96.2195895,40.1097218 C96.2859488,39.4791135 96.6944523,39.1006793 97.3398123,39.1067329 C97.8982812,39.1120946 98.1364517,39.4984849 98.1037649,40.0014495 C98.0645078,40.6042114 97.7404316,41.0054761 97.1320291,41.001671" id="Fill-161" fill="#E2CA20"></path>
                <path d="M50.9463009,22.2922536 C50.9580048,22.9214831 50.6703977,23.2610452 50.0275415,23.2572338 C49.4994872,23.2541154 49.0549096,23.1591766 49.0533606,22.4753746 C49.0518115,21.8267416 49.4712601,21.3572449 50.0853728,21.3622691 C50.6946662,21.3671199 50.946473,21.7130922 50.9463009,22.2922536" id="Fill-163" fill="#E2CA20"></path>
                <path d="M21.3116243,50.6491561 C20.6747856,50.642894 20.389923,50.30095 20.3129641,49.7942138 C20.2548757,49.4112365 21.0134702,48.704772 21.4202528,48.7568463 C21.9748817,48.8278718 22.2170806,49.2362271 22.2024765,49.7439521 C22.1859033,50.3255041 21.8004526,50.6025199 21.3116243,50.6491561" id="Fill-165" fill="#E2CA20"></path>
                <path d="M79.8817628,16.1929463 C79.2649734,16.2162693 79.043022,15.8296777 79.0029083,15.3034836 C78.9690934,14.8603463 79.6651158,14.2443837 80.1408443,14.3027752 C80.6548631,14.3660326 80.9217352,14.6997698 80.8928931,15.2237827 C80.8575865,15.8580345 80.4816449,16.1575423 79.8817628,16.1929463" id="Fill-167" fill="#E2CA20"></path>
                <path d="M73.83821,48.3804106 C73.8814649,47.8457579 74.2395105,47.4943718 74.789654,47.3835129 C75.2016449,47.3006184 75.8057338,47.9140043 75.7239935,48.33114 C75.6225171,48.8484815 75.3159498,49.2591254 74.7463991,49.2706108 C74.2385237,49.2807646 73.8454465,49.0632082 73.83821,48.3804106" id="Fill-169" fill="#E2CA20"></path>
                <path d="M96.043513,46.7268754 C96.120733,46.2502541 96.4724755,45.8374178 97.0452039,45.825637 C97.5558894,45.8148658 97.960335,46.219792 97.9333164,46.7374782 C97.9037961,47.3007733 97.5268694,47.7287564 96.9072754,47.7203415 C96.3835809,47.7132729 96.0089892,47.4598154 96.043513,46.7268754" id="Fill-171" fill="#E2CA20"></path>
                <path d="M94.5188337,24.2880171 C93.9397193,24.3257032 93.5986689,23.9943793 93.6341984,23.4283894 C93.6713652,22.8329136 94.0726684,22.4195875 94.6447423,22.3967316 C95.1711355,22.3756204 95.5247932,22.7514348 95.5249569,23.3099224 C95.5251207,23.9690807 95.1017139,24.2534715 94.5188337,24.2880171" id="Fill-173" fill="#E2CA20"></path>
                <path d="M28.8813092,26.1860134 C29.4039153,26.1953753 29.7022645,26.5083057 29.7714062,27.0174895 C29.8379077,27.5076026 29.206226,28.0944555 28.6832899,28.0807594 C28.1459974,28.0665432 27.8823016,27.7673089 27.8829616,27.2094086 C27.8836217,26.6206486 28.3171191,26.1802922 28.8813092,26.1860134" id="Fill-175" fill="#E2CA20"></path>
                <path d="M85.2206725,48.5730814 C84.5780524,48.6496844 84.3233291,48.2132213 84.3379416,47.6860533 C84.3535505,47.1118788 84.766189,46.732868 85.305525,46.690214 C85.8503406,46.6470378 86.2149902,47.0182142 86.2301009,47.5784608 C86.2480345,48.2475186 85.8139753,48.5342576 85.2206725,48.5730814" id="Fill-177" fill="#E2CA20"></path>
                <path d="M29.8997654,44.44587 C29.4811106,44.4698436 29.1619251,44.1736471 29.0914131,43.6017533 C29.036116,43.1533761 29.6231162,42.5425685 30.0942869,42.552297 C30.6425137,42.5634152 30.9545008,42.8785474 30.9801861,43.4631229 C31.0032538,43.9891541 30.5715109,44.42207 29.8997654,44.44587" id="Fill-179" fill="#E2CA20"></path>
                <path d="M23.9007224,39.6234895 C24.5173348,39.653932 24.8063823,39.947287 24.7836068,40.5039006 C24.7571471,41.1525335 24.4019502,41.5000278 23.7734477,41.5180166 C23.1675532,41.5354864 22.8719745,41.1011618 22.8925729,40.590039 C22.9176929,39.9728864 23.3902839,39.6829907 23.9007224,39.6234895" id="Fill-181" fill="#E2CA20"></path>
                <path d="M82.9604131,27.1352517 C82.87613,27.7147653 82.5426323,28.0883807 81.8851553,28.080884 C81.3171534,28.0744333 81.037133,27.7435317 81.0696693,27.1879031 C81.1079169,26.5349914 81.4834696,26.1859583 82.1331586,26.1859583 C82.7068717,26.1859583 82.9512406,26.5295868 82.9604131,27.1352517" id="Fill-183" fill="#E2CA20"></path>
                <path d="M11.2209249,25.3460902 C11.7065844,25.4503224 12.1930835,25.5499934 12.6772317,25.6599693 C13.1472735,25.7667354 13.5783551,25.9708075 13.9145551,26.3172908 C14.6025727,27.0259681 14.2945853,28.0415983 13.3163811,28.328279 C12.2879652,28.6298258 11.2184059,28.49924 10.1730288,28.62442 C9.530017,29.1087532 8.86013603,28.9577264 8.18555296,28.7109141 C7.99461421,28.6647951 7.86664998,28.5318442 7.74825788,28.3863922 C7.64682692,28.3397665 7.54186939,28.2995602 7.44463673,28.2453325 C6.97593836,27.9839918 6.33914,27.8920918 6.36936777,27.1339169 C6.39791622,26.4169617 6.90792588,26.1400792 7.45790336,25.8927601 C7.97211132,25.6616586 8.51218081,25.5352961 9.07257008,25.492049 C9.32681921,25.3457524 9.52078074,25.1035013 9.81415804,25.0178518 C10.3080462,25.0180207 10.8494592,24.8154691 11.2209249,25.3460902" id="Fill-201" fill="#FAAB19"></path>
                <path d="M7.62268007,41.6114509 C7.74324058,42.0912486 7.75374585,42.5786911 7.72806629,43.069125 C6.6616978,44.4909015 5.49277783,45.7576204 3.53095995,45.825427 C3.32919202,45.7499756 3.12759085,45.6745242 2.92598967,45.599239 C4.03821452,42.945644 5.09674575,40.2742664 5.6413524,37.4333725 C5.73489934,36.945099 5.82077577,36.4551636 5.91015396,35.965893 C6.10024936,35.0036387 7.28834562,33.6734342 8.02888393,33.593828 C8.66553677,34.1676906 8.46643685,34.9657468 8.59166636,35.6767182 C8.66420277,36.0968527 8.44592656,36.4151113 8.22414859,36.7380232 C7.52096236,37.761935 6.76608352,38.7502815 6.10892038,39.8061022 C5.93283201,40.0889618 5.75207463,40.3683313 5.6685327,40.6917419 C5.57932127,41.0375884 5.65085717,41.367979 5.93049751,41.5961612 C6.19713132,41.8140395 6.50945473,41.9061102 6.85629546,41.728118 C7.09374796,41.606299 7.33136721,41.4123524 7.62268007,41.6114509" id="Fill-203" fill="#49BC92"></path>
                <path d="M7.95395425,33.494138 C7.29634023,34.2982649 6.70908888,35.1610415 5.91209293,35.8488575 C5.50704568,36.2358467 5.09192262,36.5607265 4.46016982,36.5188809 C3.41967531,36.4501817 2.76575575,35.4974536 3.27391204,34.6063406 C4.19870276,32.9845775 5.4177069,31.6292093 7.24176296,30.9209648 C7.40734198,30.661654 7.65419914,30.6343061 7.92994026,30.6878487 C8.68075545,30.9245892 8.80200094,31.511251 8.77446042,32.1708953 C8.75011056,32.7562391 8.66345866,33.3134112 7.95395425,33.494138" id="Fill-205" fill="#FAAB19"></path>
                <path d="M11.1442583,25.4044423 C10.6608878,25.4126368 10.1773492,25.4206642 9.69397867,25.4288587 C9.46372219,25.4569544 9.16741404,25.6552964 9.1222031,25.2084415 C9.69280218,23.7680369 10.5788694,22.5199538 11.5257782,21.3094988 C11.6462847,21.1553072 11.7755308,21.0027878 12.0041066,21.0188425 C12.4220977,21.563865 13.0441264,21.8369615 13.5972461,22.2022052 C12.6863044,23.1987652 11.7812452,24.1998406 11.1442583,25.4044423" id="Fill-207" fill="#ADDBCD"></path>
                <path d="M7.84291427,31.0096874 C7.60614537,30.9031977 7.3612788,30.9221777 7.11447583,30.9661845 C6.70747977,30.8234143 6.95252238,30.5539985 7.01378303,30.3594951 C7.21851331,29.7093028 7.45880294,29.0693564 7.68571381,28.4255468 C7.86403864,28.4514134 8.04218743,28.477448 8.22033623,28.5033146 C8.61254523,29.4042785 8.45111989,30.4772386 7.84291427,31.0096874" id="Fill-209" fill="#51BD90"></path>
                <path d="M7.73251827,49.6154999 C7.10920844,48.1915029 5.82766853,47.3834582 4.64716007,46.4806898 C4.87634551,45.6475177 5.59068535,45.5152682 6.29587134,45.483363 C7.04919983,45.4493087 7.6740353,45.7640626 7.99747156,46.4749039 C8.14528939,46.7990806 8.25242342,47.14326 8.33379103,47.4917376 C8.62959621,48.275812 8.20173817,48.9248266 7.91898572,49.6009524 L7.92017233,49.5992993 C7.85762097,49.6047546 7.79506962,49.6102099 7.73251827,49.6154999" id="Fill-213" fill="#6A4E3D"></path>
                <path d="M3.78657487,50.304604 C4.54234943,50.7537464 5.26444766,51.2948776 6.19621343,51.2638208 C5.19677119,51.8221684 4.14422397,51.4034077 3.78657487,50.304604" id="Fill-215" fill="#6D503D"></path>
                <path d="M25.3012048,14.3389361 C24.485335,14.3682223 23.9215009,14.8708857 23.4199266,15.4122664 C22.6190392,16.2762915 21.8739192,17.1914433 21.1051604,18.08492 C20.6978082,18.3412154 20.3786851,18.0834309 20.0410838,17.9098647 C19.3555601,17.5572723 18.6537223,17.2457137 17.8646542,17.2213913 C17.4717848,17.2093128 17.0735884,17.2328079 16.8833131,17.6601876 C16.6925385,18.0883946 16.8390321,18.4320522 17.14284,18.7747171 C17.4053633,19.0710535 17.9122646,19.2614964 17.726817,19.8151211 C17.3714034,19.9287912 17.0161563,20.0426267 16.6610756,20.1562968 C15.9520796,19.4469756 15.1505263,18.8576119 14.2857143,18.350812 C15.727678,16.6818306 17.2961589,15.1692076 19.2854762,14.1312855 C20.701637,13.3925126 22.1402713,12.7055283 23.6060402,12.0729799 C23.868064,11.9599717 24.1454032,11.7296532 24.4267376,12.0514703 C24.5718995,12.8690015 25.0446745,13.563266 25.3012048,14.3389361" id="Fill-217" fill="#ADDCCE"></path>
                <path d="M30.636833,10.6811146 C29.7097998,11.1480295 28.7537558,11.5603236 27.9357178,12.2315989 C27.8608143,12.044935 27.7859108,11.858101 27.7108434,11.6709266 C28.6190278,11.1271 29.5654016,10.7049367 30.636833,10.6811146" id="Fill-219" fill="#ADD5C6"></path>
                <path d="M8.11353863,47.4617274 C8.00285144,47.2396614 7.90192591,47.0115619 7.7796571,46.7960321 C7.24028456,45.8450868 6.26924853,45.5601719 5.30962867,46.069164 C5.06674558,46.1982137 4.83081146,46.3408387 4.5915683,46.4769275 C4.20838216,46.2674312 3.82552693,46.0581026 3.44234079,45.848774 C5.09123243,45.3233574 6.20488782,43.9747044 7.60659462,43.0690103 C7.82499086,44.5328024 8.04322166,45.9967621 8.2616179,47.4605542 C8.21314055,47.5770341 8.16367049,47.5773693 8.11353863,47.4617274" id="Fill-221" fill="#755948"></path>
                <path d="M7.57329251,41.5772634 C7.21225495,41.8026469 6.98505741,42.2452453 6.46142903,42.2050697 C5.38244724,42.122218 4.80825708,41.1028245 5.40244062,40.1649492 C6.3470867,38.6736175 7.36707975,37.2309632 8.35518253,35.7676377 C8.69110443,34.4773506 9.73340415,33.7088464 10.5465235,32.775472 C10.878645,32.3940539 11.2205153,31.9564565 11.835188,32.0583125 C12.8082544,32.2640249 13.2530659,33.6961769 12.6012155,34.7704158 C11.9843948,35.7868086 11.2956971,36.7630258 10.5843622,37.715571 C9.6074954,39.0231952 8.57940585,40.2919775 7.57329251,41.5772634" id="Fill-223" fill="#FAAB19"></path>
                <path d="M17.886065,19.8949914 C17.5482633,19.5680781 17.215481,19.236166 16.8718234,18.9155843 C16.4363119,18.5091921 16.4607394,18.0259868 16.6635207,17.5416152 C16.8532518,17.0885686 17.2375661,16.9086163 17.7291269,16.8864555 C18.7493917,16.8404677 19.6150607,17.2678544 20.4758778,17.7247333 C20.7444125,17.8673622 21.0131146,18.0098244 21.2816494,18.1524533 C21.8538543,18.6304932 22.4352613,19.098036 22.996089,19.5892391 C23.5836866,20.1041027 23.79132,20.7046102 23.3218443,21.4155884 C22.6820456,22.1553923 21.9247943,22.1825518 21.0639773,21.8381431 C19.890288,21.3687675 18.9342707,20.5599818 17.886065,19.8949914" id="Fill-225" fill="#FAAB19"></path>
                <path d="M11.8760757,31.9766924 C10.7480835,32.744548 10.0002115,33.874887 9.12387372,34.8830182 C8.89200866,35.1497888 8.64381739,35.4021528 8.40304713,35.6611405 C8.03908824,34.965318 8.15601024,34.1669933 7.93403985,33.4403705 C8.6039089,32.1745763 8.60011594,31.6122218 7.91738382,30.8963626 C8.1332525,30.0869431 7.95250989,29.2202284 8.27078839,28.4255468 C8.89778055,28.4782054 9.5247727,28.5306985 10.1515999,28.5825291 C10.7263153,29.7135305 11.3011955,30.8451943 11.8760757,31.9766924" id="Fill-227" fill="#ADDCCD"></path>
                <path d="M8.26757485,47.3771167 C8.32009469,47.3766001 8.37261453,47.3762557 8.42531062,47.3759113 C8.54286342,47.7779903 8.66041622,48.1800693 8.77796902,48.5819761 C8.3308454,48.799116 8.24554471,49.3038241 7.91738382,49.6154999 C7.99122883,48.8630009 8.36168759,48.1547564 8.26757485,47.3771167" id="Fill-229" fill="#755848"></path>
                <g id="mouth" transform="translate(55.077453, 35.488864)">
                    <path d="M13.2654482,0 C14.0364109,8.04397688 11.8678536,10.8141751 9.9268356,11.3615493 C4.11508149,13.0006421 0.938263179,8.92765294 0.167814114,0.883676054 C6.97344752,2.26069583 8.42856899,2.3147263 13.2654482,0 Z" id="Shape" fill="#42210B" fill-rule="nonzero"></path>
                    <g id="Clipped">
                        <mask id="mask-2" fill="white">
                            <use xlink:href="#path-1"></use>
                        </mask>
                        <g id="SVGID_7_"></g>
                        <ellipse id="Oval" fill="#F15A24" fill-rule="nonzero" mask="url(#mask-2)" cx="6.71692484" cy="12.7356001" rx="6.58237522" ry="6.52556601"></ellipse>
                    </g>
                </g>
                <g id="eyes" transform="translate(38.898451, 24.463198)" fill-rule="nonzero">
                    <g id="left-eye" transform="translate(0.000000, 1.509682)">
                        <ellipse id="left-eye-sclera" fill="#FFFFFF" cx="5.59616268" cy="5.59584724" rx="5.56843145" ry="5.54240488"></ellipse>
                        <path d="M7.80678767,2.25165901 C7.43318982,2.09577221 7.02293538,2.00964431 6.59247023,2.00964431 C4.85652376,2.00964431 3.4492611,3.41032949 3.4492611,5.13816223 C3.4492611,6.86599498 4.85652376,8.26668016 6.59247023,8.26668016 C8.3284167,8.26668016 9.73567936,6.86599498 9.73567936,5.13816223 C9.73567936,4.98618497 9.72479184,4.83673874 9.70375078,4.69055409 C9.42567795,4.94922228 9.05219355,5.10754953 8.6415562,5.10754953 C7.78221536,5.10754953 7.08558196,4.41417217 7.08558196,3.55884784 C7.08558196,3.00926226 7.37319814,2.52653905 7.80678767,2.25165901 Z" id="left-eye-pupil" fill="#603813"></path>
                    </g>
                    <g id="right-eye" transform="translate(31.398232, 0.000000)">
                        <path d="M0.261806967,2.89386841 C-0.39981374,5.23777819 0.734175738,7.95467362 2.79666667,8.96163486 C4.86017235,9.9685961 7.06929548,8.88463782 7.73243832,6.54072804 C8.3945664,4.19681826 7.25854741,1.48042282 5.19656386,0.473461574 C3.13356556,-0.533999648 0.924949807,0.54995863 0.261806967,2.89386841 Z" id="right-eye-sclera" fill="#FFFFFF"></path>
                        <path d="M1.04111271,4.13301698 C1.04133536,4.25568758 1.04897815,4.38066371 1.06447871,4.50730631 C1.24053882,5.94475098 2.36438075,7.05320831 3.5744769,6.98171107 C4.78508043,6.90971384 5.62276125,5.68626093 5.44619376,4.24831628 C5.26962627,2.80987164 4.14578435,1.70241427 2.93619557,1.77341154 C2.63647662,1.79124395 2.35960398,1.87971396 2.11532221,2.02459256 C2.44516095,2.23582097 2.69448631,2.62541925 2.75049528,3.08236116 C2.83776427,3.79483373 2.4227292,4.40131039 1.82351597,4.43630904 C1.53765569,4.45327272 1.26129626,4.33688023 1.04111271,4.13301698 Z" id="right-eye-pupil" fill="#603813"></path>
                    </g>
                </g>
            </g>
        </g>
    </g>
</svg>